<svg xmlns="http://www.w3.org/2000/svg" xml:space="preserve" fill-rule="evenodd" stroke-linejoin="round" stroke-miterlimit="2" clip-rule="evenodd" viewBox="0 0 112 112">
  <path fill="#1d9bf0" fill-rule="nonzero" d="M100.534 34.656c.068.987.068 1.975.068 2.971 0 30.363-23.114 65.38-65.38 65.38v-.018A65.05 65.05 0 0 1 0 92.688a46.14 46.14 0 0 0 34.007-9.523A23.007 23.007 0 0 1 12.54 67.206c3.443.664 6.992.528 10.374-.396-10.72-2.164-18.432-11.583-18.432-22.52v-.292a22.832 22.832 0 0 0 10.429 2.876C4.814 40.125 1.7 26.693 7.799 16.192a65.248 65.248 0 0 0 47.357 24.006 23.017 23.017 0 0 1 6.648-21.954c9.254-8.7 23.81-8.254 32.51.996 2.721-4.027 7.314-6.337 14.592-5.578-5.62 2.928-11.106 8.51-12.101 13.708 4.048.033 10.25-2.908 14.195-7.617-.3 5.6-3.404 12.553-10.466 14.903Z"/>
  <path fill="#00cdff" fill-rule="nonzero" d="M0 108.619h18.85l4.349-16.11h4.673l6.282 16.11H54.45L46.64 89.85c11.115-3.464 15.708-11.035 15.708-19.816 0-4.43-1.29-8.619-4.43-11.76-3.787-3.786-10.393-6.042-20.783-6.042h-21.99L.001 108.62Zm26.742-29.562 2.981-11.035h6.686c2.658 0 4.51.562 5.559 1.61.805.806 1.207 1.853 1.207 2.98 0 3.544-3.303 6.445-9.585 6.445h-6.848Zm51.313 11.841h28.272a27.005 27.005 0 0 0 1.29-8.217c0-9.263-4.834-19.091-19.333-19.091-16.755 0-26.743 13.371-26.743 26.743 0 11.52 8.217 19.332 21.588 19.332 7.733 0 13.854-2.738 18.848-7.168l-8.458-9.263c-3.061 2.334-5.88 3.544-8.861 3.544-4.106 0-6.362-2.337-6.603-5.88Zm1.127-8.056c1.691-4.914 5.235-6.606 7.973-6.606 2.981 0 4.753 2.256 4.753 4.673 0 .645-.08 1.29-.321 1.933H79.182Z"/>
  <ellipse cx="75.5" cy="32" fill="#ebebeb" rx="7.5" ry="4" transform="rotate(-19.582 70.705 25.205)"/>
</svg>
